<svg xmlns="http://www.w3.org/2000/svg" xmlns:xlink="http://www.w3.org/1999/xlink" version="1.1" id="Layer_1" x="0px" y="0px"  viewBox="0 259.343 612 273.313" enable-background="new 0 259.343 612 273.313" xml:space="preserve">
<g>
	<g>
		<polygon opacity="0.35" fill="#406DB5" enable-background="new    " points="187.403,452.377 118.346,412.517 44.932,455.019     118.346,497.405 191.877,454.961   "/>
		<polygon opacity="0.35" fill="#406DB5" enable-background="new    " points="35.001,364.384 30.527,361.8 30.527,430.335     89.787,396.01   "/>
		<polygon opacity="0.35" fill="#406DB5" enable-background="new    " points="201.712,427.616 206.166,430.2 206.166,361.8     146.945,396.01   "/>
		<polygon opacity="0.35" fill="#406DB5" enable-background="new    " points="49.29,339.623 118.346,379.502 191.877,337.039     118.346,294.595 44.816,337.039   "/>
		<polygon fill="#406DB5" points="228.979,323.212 118.346,259.343 118.346,275.561 214.921,331.331 222.654,335.785     222.654,344.714 222.654,447.286 198.414,433.305 133.812,396.01 206.166,354.221 206.166,345.292 198.453,340.838     118.346,387.081 46.012,345.312 21.791,331.331 7.733,323.212 0,327.667 0,327.667 0,327.667 0,336.595 0,455.405 0,464.333     0,464.333 0,464.333 7.733,468.788 118.346,532.657 118.346,516.439 21.791,460.689 14.058,456.215 14.058,447.286     14.058,344.714 38.279,358.695 102.9,396.01 30.527,437.914 30.527,446.843 38.26,451.316 118.346,404.919 190.7,446.688     214.921,460.689 228.979,468.788 236.693,464.333 236.693,455.405 236.693,336.595 236.693,327.667   "/>
	</g>
	<g>
		<path fill="#406DB5" d="M321.89,426.575c-2.468,0-4.647,0.482-6.557,1.427c-1.89,0.964-3.49,2.333-4.782,4.146    c-1.292,1.793-2.256,3.973-2.931,6.518s-1.003,5.419-1.003,8.601c0,4.3,0.54,7.964,1.601,10.992    c1.061,3.028,2.719,5.342,4.975,6.942c2.237,1.601,5.149,2.391,8.697,2.391c2.468,0,4.937-0.27,7.424-0.829    c2.488-0.559,5.168-1.35,8.08-2.372v10.818c-2.68,1.118-5.342,1.909-7.945,2.391c-2.603,0.482-5.535,0.733-8.774,0.733    c-6.267,0-11.416-1.292-15.447-3.895c-4.03-2.584-7.019-6.229-8.967-10.896c-1.948-4.667-2.912-10.124-2.912-16.353    c0-4.609,0.617-8.813,1.871-12.631c1.253-3.818,3.085-7.135,5.496-9.931c2.41-2.796,5.4-4.956,8.948-6.479    c3.548-1.523,7.617-2.295,12.226-2.295c3.028,0,6.055,0.386,9.083,1.138c3.028,0.771,5.939,1.813,8.716,3.143l-4.165,10.471    c-2.275-1.08-4.551-2.025-6.865-2.835C326.364,426.98,324.108,426.575,321.89,426.575z"/>
		<path fill="#406DB5" d="M414.01,447.016c0,4.686-0.579,8.948-1.755,12.785c-1.157,3.838-2.931,7.135-5.303,9.912    c-2.372,2.777-5.361,4.898-9.006,6.383c-3.625,1.485-7.926,2.218-12.882,2.218c-4.956,0-9.256-0.733-12.882-2.218    c-3.625-1.485-6.634-3.606-9.006-6.383c-2.372-2.777-4.146-6.074-5.303-9.931c-1.157-3.857-1.755-8.138-1.755-12.843    c0-6.287,1.041-11.763,3.105-16.449c2.063-4.667,5.245-8.292,9.546-10.876c4.3-2.584,9.758-3.857,16.372-3.857    c6.595,0,12.014,1.292,16.276,3.857c4.262,2.584,7.405,6.209,9.488,10.896C412.988,435.214,414.01,440.71,414.01,447.016z     M369.657,447.016c0,4.242,0.54,7.887,1.601,10.953c1.061,3.066,2.738,5.419,5.014,7.077c2.276,1.658,5.207,2.468,8.813,2.468    c3.664,0,6.614-0.829,8.89-2.468c2.276-1.658,3.934-4.011,4.975-7.077c1.041-3.066,1.562-6.711,1.562-10.953    c0-6.383-1.196-11.397-3.568-15.042c-2.391-3.664-6.306-5.496-11.763-5.496c-3.625,0-6.595,0.829-8.871,2.468    c-2.295,1.658-3.973,4.011-5.033,7.077C370.197,439.09,369.657,442.754,369.657,447.016z"/>
		<path fill="#406DB5" d="M485.554,446.534c0,6.846-1.311,12.554-3.934,17.144c-2.623,4.59-6.402,8.041-11.378,10.356    c-4.956,2.314-10.934,3.471-17.915,3.471h-17.221v-60.783h19.091c6.383,0,11.898,1.138,16.584,3.394    c4.686,2.256,8.311,5.592,10.895,10.028C484.262,434.539,485.554,440.016,485.554,446.534z M472.171,446.862    c0-4.493-0.656-8.176-1.967-11.088c-1.311-2.893-3.259-5.033-5.824-6.422s-5.727-2.083-9.507-2.083h-6.865v39.571h5.535    c6.287,0,10.973-1.678,14.039-5.033C470.628,458.471,472.171,453.476,472.171,446.862z"/>
		<path fill="#406DB5" d="M541.671,477.504H506.67v-60.783h35.001v10.568h-22.119v13.325h20.576v10.568h-20.576v15.678h22.119    V477.504z"/>
		<path fill="#406DB5" d="M612,477.504h-14.714l-14.135-22.987l-14.135,22.987h-13.807l20.171-31.356L556.5,416.721h14.212    l13.094,21.868l12.843-21.868h13.885l-19.072,30.141L612,477.504z"/>
	</g>
	<g>
		<path fill="#406DB5" d="M338.243,375.337l-4.416-14.463H311.67l-4.416,14.463h-13.885l21.444-61.034h15.755l21.54,61.034H338.243z     M330.741,350.056l-4.416-14.135c-0.27-0.945-0.636-2.16-1.099-3.645c-0.463-1.485-0.906-2.989-1.369-4.532    s-0.829-2.873-1.099-4.011c-0.27,1.138-0.656,2.546-1.138,4.223c-0.482,1.678-0.945,3.259-1.388,4.763    c-0.444,1.504-0.771,2.565-0.964,3.201l-4.358,14.135H330.741z"/>
		<path fill="#406DB5" d="M422.206,375.337h-16.372l-26.458-45.993h-0.366c0.116,1.909,0.212,3.838,0.289,5.785    s0.174,3.876,0.251,5.805c0.077,1.928,0.174,3.857,0.251,5.805v28.598h-11.513v-60.783h16.257l26.4,45.53h0.289    c-0.058-1.89-0.116-3.76-0.212-5.612c-0.077-1.851-0.154-3.722-0.231-5.573c-0.077-1.851-0.135-3.722-0.193-5.573v-28.772h11.59    v60.783H422.206z"/>
		<path fill="#406DB5" d="M483.221,375.337l-4.416-14.463h-22.157l-4.416,14.463h-13.885l21.444-61.034h15.755l21.54,61.034H483.221    z M475.739,350.056l-4.416-14.135c-0.27-0.945-0.636-2.16-1.099-3.645c-0.463-1.485-0.906-2.989-1.369-4.532    c-0.463-1.543-0.829-2.873-1.099-4.011c-0.27,1.138-0.656,2.546-1.138,4.223c-0.482,1.678-0.945,3.259-1.388,4.763    c-0.444,1.504-0.771,2.565-0.964,3.201l-4.358,14.135H475.739z"/>
		<path fill="#406DB5" d="M549.153,358.444c0,3.606-0.868,6.73-2.623,9.391c-1.755,2.661-4.281,4.705-7.636,6.152    c-3.336,1.446-7.386,2.16-12.168,2.16c-2.102,0-4.165-0.135-6.171-0.424c-2.006-0.27-3.934-0.694-5.785-1.234    s-3.587-1.215-5.265-2.025v-11.975c2.873,1.273,5.882,2.43,8.986,3.452c3.105,1.022,6.19,1.543,9.237,1.543    c2.102,0,3.799-0.27,5.091-0.829c1.292-0.559,2.218-1.311,2.815-2.295c0.578-0.964,0.868-2.083,0.868-3.317    c0-1.523-0.521-2.835-1.543-3.915c-1.022-1.08-2.43-2.083-4.223-3.028c-1.793-0.945-3.799-1.948-6.055-3.028    c-1.408-0.675-2.951-1.485-4.609-2.43c-1.658-0.964-3.24-2.121-4.744-3.51s-2.719-3.066-3.683-5.052s-1.427-4.358-1.427-7.135    c0-3.625,0.829-6.73,2.488-9.314c1.658-2.584,4.03-4.551,7.135-5.92c3.085-1.369,6.749-2.063,10.953-2.063    c3.163,0,6.171,0.366,9.044,1.099c2.873,0.733,5.862,1.793,9.006,3.182l-4.165,10.028c-2.796-1.138-5.303-2.025-7.521-2.642    s-4.474-0.945-6.769-0.945c-1.601,0-2.97,0.251-4.108,0.771s-1.986,1.234-2.584,2.16c-0.578,0.926-0.868,2.006-0.868,3.22    c0,1.446,0.424,2.661,1.273,3.645c0.849,0.983,2.121,1.928,3.818,2.854c1.697,0.906,3.838,1.986,6.383,3.201    c3.105,1.466,5.766,3.008,7.964,4.59c2.198,1.601,3.895,3.471,5.091,5.612C548.555,352.601,549.153,355.262,549.153,358.444z"/>
	</g>
</g>
</svg>