<svg xmlns="http://www.w3.org/2000/svg" viewBox="0 0 48 48">
  <path d="M10.5 6C8.0324991 6 6 8.0324991 6 10.5L6 13.5C6 15.967501 8.0324991 18 10.5 18L18.5 18C20.967501 18 23 15.967501 23 13.5L23 10.5C23 8.0324991 20.967501 6 18.5 6L10.5 6 z M 29.5 6C27.032499 6 25 8.0324991 25 10.5L25 23.5C25 25.967501 27.032499 28 29.5 28L37.5 28C39.967501 28 42 25.967501 42 23.5L42 10.5C42 8.0324991 39.967501 6 37.5 6L29.5 6 z M 10.5 9L18.5 9C19.346499 9 20 9.6535009 20 10.5L20 13.5C20 14.346499 19.346499 15 18.5 15L10.5 15C9.6535009 15 9 14.346499 9 13.5L9 10.5C9 9.6535009 9.6535009 9 10.5 9 z M 29.5 9L37.5 9C38.346499 9 39 9.6535009 39 10.5L39 23.5C39 24.346499 38.346499 25 37.5 25L29.5 25C28.653501 25 28 24.346499 28 23.5L28 10.5C28 9.6535009 28.653501 9 29.5 9 z M 10.5 20C8.0324991 20 6 22.032499 6 24.5L6 37.5C6 39.967501 8.0324991 42 10.5 42L18.5 42C20.967501 42 23 39.967501 23 37.5L23 24.5C23 22.032499 20.967501 20 18.5 20L10.5 20 z M 10.5 23L18.5 23C19.346499 23 20 23.653501 20 24.5L20 37.5C20 38.346499 19.346499 39 18.5 39L10.5 39C9.6535009 39 9 38.346499 9 37.5L9 24.5C9 23.653501 9.6535009 23 10.5 23 z M 29.5 30C27.032499 30 25 32.032499 25 34.5L25 37.5C25 39.967501 27.032499 42 29.5 42L37.5 42C39.967501 42 42 39.967501 42 37.5L42 34.5C42 32.032499 39.967501 30 37.5 30L29.5 30 z M 29.5 33L37.5 33C38.346499 33 39 33.653501 39 34.5L39 37.5C39 38.346499 38.346499 39 37.5 39L29.5 39C28.653501 39 28 38.346499 28 37.5L28 34.5C28 33.653501 28.653501 33 29.5 33 z" fill="#FFFFFF" />
</svg>