<svg xmlns="http://www.w3.org/2000/svg" viewBox="0 0 50 50">
  <path d="M25 48C12.621094 48 2.519531 38.355469 2 26.042969C1.980469 25.546875 2.324219 25.109375 2.8125 25.019531C3.300781 24.921875 3.78125 25.203125 3.945313 25.671875C6.316406 32.445313 12.769531 37 20 37C29.375 37 37 29.375 37 20C37 12.769531 32.445313 6.316406 25.671875 3.945313C25.203125 3.78125 24.925781 3.296875 25.019531 2.8125C25.109375 2.324219 25.554688 1.980469 26.042969 2C38.355469 2.519531 48 12.621094 48 25C48 37.683594 37.683594 48 25 48Z" fill="#FFFFFF" />
</svg>